<svg width="40" height="40" viewBox="0 0 40 40" fill="none" xmlns="http://www.w3.org/2000/svg">
<path d="M23.2168 7.96655C23.9708 7.96669 24.7134 8.15206 25.3789 8.50659C26.0444 8.86112 26.6124 9.37406 27.0332 9.99976L29 12.9167H30C31.2156 12.9167 32.3817 13.4 33.2412 14.2595C34.1005 15.119 34.5829 16.2844 34.583 17.4998V27.4998C34.583 28.7153 34.1007 29.8814 33.2412 30.741C32.3817 31.6005 31.2156 32.0837 30 32.0837H10C8.78442 32.0837 7.61833 31.6005 6.75879 30.741C5.89933 29.8814 5.41699 28.7153 5.41699 27.4998V17.4998C5.41706 16.2844 5.89953 15.119 6.75879 14.2595C7.61833 13.4 8.78442 12.9167 10 12.9167H11L12.9668 9.99976C13.3876 9.37406 13.9556 8.86112 14.6211 8.50659C15.2866 8.15206 16.0292 7.96669 16.7832 7.96655H23.2168Z" fill="#A3AAB5"/>
<path d="M20.0002 27.0833C18.9289 27.0833 17.8816 26.7657 16.9908 26.1705C16.1001 25.5753 15.4058 24.7293 14.9958 23.7395C14.5858 22.7498 14.4786 21.6607 14.6876 20.6099C14.8966 19.5592 15.4125 18.594 16.17 17.8365C16.9275 17.079 17.8927 16.5631 18.9434 16.3541C19.9942 16.1451 21.0833 16.2523 22.073 16.6623C23.0628 17.0723 23.9088 17.7666 24.504 18.6573C25.0992 19.5481 25.4168 20.5954 25.4168 21.6667C25.4124 23.1019 24.8403 24.4771 23.8255 25.492C22.8106 26.5068 21.4354 27.0789 20.0002 27.0833ZM20.0002 18.75C19.4233 18.75 18.8594 18.9211 18.3798 19.2416C17.9001 19.562 17.5263 20.0176 17.3055 20.5505C17.0848 21.0835 17.027 21.6699 17.1395 22.2357C17.2521 22.8015 17.5299 23.3212 17.9378 23.7291C18.3457 24.137 18.8654 24.4148 19.4312 24.5273C19.9969 24.6398 20.5834 24.5821 21.1163 24.3613C21.6493 24.1406 22.1048 23.7667 22.4253 23.2871C22.7458 22.8074 22.9168 22.2435 22.9168 21.6667C22.9125 20.8945 22.6038 20.1551 22.0577 19.6091C21.5117 19.0631 20.7724 18.7544 20.0002 18.75Z" fill="#F6F7F9"/>
</svg>
