<svg width="24" height="24" viewBox="0 0 24 24" fill="none" xmlns="http://www.w3.org/2000/svg">
<path d="M12.0001 15.2499C11.9015 15.2504 11.8039 15.2312 11.7129 15.1934C11.6219 15.1556 11.5393 15.1 11.4701 15.0299L6.47006 10.0299C6.37033 9.88402 6.32533 9.70759 6.34299 9.53175C6.36065 9.35592 6.43983 9.19196 6.56657 9.0688C6.69331 8.94565 6.85947 8.8712 7.03575 8.8586C7.21202 8.846 7.38708 8.89604 7.53006 8.99992L12.0001 13.4399L16.4701 8.99992C16.611 8.90853 16.7786 8.8671 16.9459 8.88229C17.1132 8.89748 17.2705 8.9684 17.3927 9.08368C17.5149 9.19896 17.5949 9.35192 17.6198 9.51806C17.6447 9.68419 17.6131 9.85388 17.5301 9.99992L12.5301 14.9999C12.4634 15.0755 12.382 15.1366 12.2909 15.1796C12.1997 15.2226 12.1008 15.2465 12.0001 15.2499Z" fill="#A3AAB5"/>
</svg>
