<svg width="454" height="143" viewBox="0 0 454 143" fill="none" xmlns="http://www.w3.org/2000/svg">
<rect y="70.7107" width="100" height="100" transform="rotate(-45 0 70.7107)" fill="#0084FF"/>
<rect x="211" y="72.132" width="100" height="100" transform="rotate(-45 211 72.132)" fill="#0084FF"/>
<path d="M357.403 14.4214L454 14.4214L412.597 135.421H316L357.403 14.4214Z" fill="#0084FF"/>
<path d="M393.9 42.4214H399.5L376.6 106.921H371L393.9 42.4214Z" fill="white"/>
<circle cx="173" cy="70.7107" r="65" fill="#00B51B"/>
<path d="M70.88 98.8307C67.2 98.8307 63.9467 98.1907 61.12 96.9107C58.3467 95.6307 56.16 93.844 54.56 91.5507C52.96 89.2573 52.1067 86.6973 52 83.8707H57.92C58.1867 86.5907 59.3867 88.9907 61.52 91.0707C63.6533 93.0973 66.7733 94.1107 70.88 94.1107C74.6667 94.1107 77.6533 93.1507 79.84 91.2307C82.08 89.2573 83.2 86.7773 83.2 83.7907C83.2 81.3907 82.5867 79.4707 81.36 78.0307C80.1333 76.5373 78.6133 75.444 76.8 74.7507C74.9867 74.004 72.48 73.204 69.28 72.3507C65.5467 71.3373 62.5867 70.3507 60.4 69.3907C58.2133 68.4307 56.3467 66.9373 54.8 64.9107C53.2533 62.884 52.48 60.1373 52.48 56.6707C52.48 53.7907 53.2267 51.2307 54.72 48.9907C56.2133 46.6973 58.32 44.9107 61.04 43.6307C63.76 42.3507 66.88 41.7107 70.4 41.7107C75.5733 41.7107 79.7333 42.9907 82.88 45.5507C86.08 48.0573 87.92 51.3107 88.4 55.3107H82.32C81.9467 53.0173 80.6933 50.9907 78.56 49.2307C76.4267 47.4173 73.5467 46.5107 69.92 46.5107C66.56 46.5107 63.76 47.4173 61.52 49.2307C59.28 50.9907 58.16 53.4173 58.16 56.5107C58.16 58.8573 58.7733 60.7507 60 62.1907C61.2267 63.6307 62.7467 64.724 64.56 65.4707C66.4267 66.2173 68.9333 67.0173 72.08 67.8707C75.7067 68.884 78.64 69.8973 80.88 70.9107C83.12 71.8707 85.0133 73.364 86.56 75.3907C88.1067 77.4173 88.88 80.1373 88.88 83.5507C88.88 86.164 88.1867 88.644 86.8 90.9907C85.4133 93.3373 83.36 95.2307 80.64 96.6707C77.92 98.1107 74.6667 98.8307 70.88 98.8307Z" fill="white"/>
<path d="M172.68 98.8307C167.507 98.8307 162.813 97.6307 158.6 95.2307C154.387 92.7773 151.053 89.3907 148.6 85.0707C146.2 80.6973 145 75.764 145 70.2707C145 64.7773 146.2 59.8707 148.6 55.5507C151.053 51.1773 154.387 47.7907 158.6 45.3907C162.813 42.9373 167.507 41.7107 172.68 41.7107C177.907 41.7107 182.627 42.9373 186.84 45.3907C191.053 47.7907 194.36 51.1773 196.76 55.5507C199.16 59.8707 200.36 64.7773 200.36 70.2707C200.36 75.764 199.16 80.6973 196.76 85.0707C194.36 89.3907 191.053 92.7773 186.84 95.2307C182.627 97.6307 177.907 98.8307 172.68 98.8307ZM172.68 93.9507C176.84 93.9507 180.573 92.9907 183.88 91.0707C187.187 89.1507 189.8 86.404 191.72 82.8307C193.64 79.204 194.6 75.0173 194.6 70.2707C194.6 65.524 193.64 61.364 191.72 57.7907C189.8 54.2173 187.187 51.4707 183.88 49.5507C180.573 47.6307 176.84 46.6707 172.68 46.6707C168.52 46.6707 164.787 47.6307 161.48 49.5507C158.173 51.4707 155.56 54.2173 153.64 57.7907C151.72 61.364 150.76 65.524 150.76 70.2707C150.76 75.0173 151.72 79.204 153.64 82.8307C155.56 86.404 158.173 89.1507 161.48 91.0707C164.787 92.9907 168.52 93.9507 172.68 93.9507Z" fill="white"/>
<path d="M297.16 98.4213L283.32 75.0613H273V98.4213H267.4V42.5013H284.2C290.44 42.5013 295.16 43.9947 298.36 46.9813C301.613 49.968 303.24 53.888 303.24 58.7413C303.24 62.7947 302.067 66.2613 299.72 69.1413C297.427 71.968 294.013 73.808 289.48 74.6613L303.88 98.4213H297.16ZM273 70.5013H284.28C288.653 70.5013 291.933 69.4347 294.12 67.3013C296.36 65.168 297.48 62.3147 297.48 58.7413C297.48 55.0613 296.413 52.2347 294.28 50.2613C292.147 48.2347 288.787 47.2213 284.2 47.2213H273V70.5013Z" fill="white"/>
</svg>
