<svg width="40" height="40" viewBox="0 0 40 40" fill="none" xmlns="http://www.w3.org/2000/svg">
<path d="M24.6338 5.41684C25.691 5.36228 26.7271 5.72719 27.5166 6.43247C28.3063 7.13786 28.7851 8.12658 28.8496 9.18345V11.6668C28.8511 11.7796 28.8361 11.8913 28.8076 11.9999H30.1182C30.1835 11.9901 30.2496 11.9833 30.3164 11.9832C30.3835 11.9832 30.4501 11.9901 30.5156 11.9999H33.333C33.6644 11.9999 33.9824 12.1318 34.2168 12.3661C34.4512 12.6004 34.5829 12.9184 34.583 13.2499C34.583 13.5814 34.4512 13.8992 34.2168 14.1336C33.9824 14.368 33.6645 14.4999 33.333 14.4999H31.667V30.8163C31.6373 31.3448 31.5026 31.8625 31.2715 32.3387C31.0404 32.815 30.7172 33.2413 30.3203 33.5916C29.9236 33.9419 29.461 34.2095 28.96 34.3797C28.4588 34.55 27.9284 34.6199 27.4004 34.5838H12.5996C12.0716 34.6199 11.5412 34.55 11.04 34.3797C10.539 34.2095 10.0764 33.9419 9.67969 33.5916C9.2828 33.2413 8.95965 32.815 8.72852 32.3387C8.49744 31.8625 8.36265 31.3448 8.33301 30.8163V14.4999H6.66699C6.50292 14.4999 6.34007 14.4679 6.18848 14.4051C6.03684 14.3423 5.89927 14.2497 5.7832 14.1336C5.66713 14.0176 5.57454 13.88 5.51172 13.7284C5.44892 13.5767 5.41699 13.414 5.41699 13.2499C5.41702 13.0858 5.44893 12.9229 5.51172 12.7713C5.57453 12.6198 5.6672 12.4821 5.7832 12.3661C5.89922 12.2501 6.03694 12.1583 6.18848 12.0956C6.34013 12.0327 6.50285 11.9999 6.66699 11.9999H11.2461C11.2163 11.8922 11.2002 11.7805 11.2002 11.6668V9.18345C11.2647 8.13568 11.7369 7.15501 12.5156 6.45102C13.2943 5.74712 14.3174 5.37578 15.3662 5.41684H24.6338ZM10.833 30.8163C10.833 31.4996 11.6167 32.0838 12.5 32.0838H27.2998C28.2331 32.0838 28.9668 31.4996 28.9668 30.8163V14.4999H10.833V30.8163ZM17.0332 18.2831C17.3646 18.2831 17.6826 18.415 17.917 18.6493C18.1513 18.8836 18.2831 19.2016 18.2832 19.5331V27.0663C18.2854 27.2318 18.2552 27.397 18.1934 27.5506C18.1315 27.7041 18.0391 27.844 17.9229 27.9618C17.8067 28.0794 17.6681 28.1724 17.5156 28.2362C17.3629 28.3 17.1988 28.3329 17.0332 28.3329C16.7032 28.3285 16.3877 28.1961 16.1543 27.9627C15.9208 27.7292 15.7875 27.413 15.7832 27.0829V19.5331C15.7833 19.2016 15.9151 18.8836 16.1494 18.6493C16.3838 18.4149 16.7018 18.2831 17.0332 18.2831ZM22.9668 18.2831C23.2982 18.2831 23.6162 18.4149 23.8506 18.6493C24.0849 18.8836 24.2167 19.2016 24.2168 19.5331V27.0663C24.2168 27.3993 24.0855 27.7198 23.8516 27.9569C23.6177 28.1938 23.2997 28.3284 22.9668 28.3329C22.6354 28.3329 22.3174 28.2018 22.083 27.9676C21.8486 27.7332 21.7168 27.4144 21.7168 27.0829V19.5331C21.7169 19.2016 21.8487 18.8836 22.083 18.6493C22.3174 18.415 22.6354 18.2831 22.9668 18.2831ZM15.3662 7.91684C14.4498 7.91704 13.7002 8.50023 13.7002 9.18345V11.6668C13.7002 11.7805 13.6831 11.8922 13.6533 11.9999H26.3926C26.3638 11.8914 26.3481 11.7796 26.3496 11.6668V9.18345C26.3496 8.50018 25.5502 7.91696 24.6836 7.91684H15.3662Z" fill="white"/>
</svg>
