<svg width="40" height="40" viewBox="0 0 40 40" fill="none" xmlns="http://www.w3.org/2000/svg">
<path d="M20.5553 22.1666C21.4758 22.1666 22.222 21.4205 22.222 20.5C22.222 19.5795 21.4758 18.8333 20.5553 18.8333C19.6349 18.8333 18.8887 19.5795 18.8887 20.5C18.8887 21.4205 19.6349 22.1666 20.5553 22.1666Z" fill="#A3AAB5"/>
<path d="M20.5553 12.1667C21.4758 12.1667 22.222 11.4205 22.222 10.5C22.222 9.57952 21.4758 8.83333 20.5553 8.83333C19.6349 8.83333 18.8887 9.57952 18.8887 10.5C18.8887 11.4205 19.6349 12.1667 20.5553 12.1667Z" fill="#A3AAB5"/>
<path d="M20.5553 31.1666C21.4758 31.1666 22.222 30.4205 22.222 29.5C22.222 28.5795 21.4758 27.8333 20.5553 27.8333C19.6349 27.8333 18.8887 28.5795 18.8887 29.5C18.8887 30.4205 19.6349 31.1666 20.5553 31.1666Z" fill="#A3AAB5"/>
</svg>
